<mxfile host="app.diagrams.net" modified="2024-05-30T09:26:35.827Z" agent="Mozilla/5.0 (Windows NT 6.3; Win64; x64) AppleWebKit/537.36 (KHTML, like Gecko) Chrome/98.0.4758.102 Safari/537.36" etag="RUXLt_p4RAzl_mWfkbHE" version="24.4.10" type="github">
  <diagram name="第 1 页" id="28iQSXjJYhkPEm7cKJXL">
    <mxGraphModel dx="732" dy="1599" grid="0" gridSize="10" guides="1" tooltips="1" connect="1" arrows="1" fold="1" page="0" pageScale="1" pageWidth="827" pageHeight="1169" math="0" shadow="0">
      <root>
        <mxCell id="0" />
        <mxCell id="1" parent="0" />
        <mxCell id="mL4Ns4pXo5bt4_CQUSLi-16" style="edgeStyle=none;curved=1;rounded=0;orthogonalLoop=1;jettySize=auto;html=1;exitX=1;exitY=0.5;exitDx=0;exitDy=0;exitPerimeter=0;entryX=0;entryY=0.5;entryDx=0;entryDy=0;fontSize=12;startSize=8;endSize=8;" edge="1" parent="1" source="mL4Ns4pXo5bt4_CQUSLi-1" target="mL4Ns4pXo5bt4_CQUSLi-9">
          <mxGeometry relative="1" as="geometry" />
        </mxCell>
        <mxCell id="mL4Ns4pXo5bt4_CQUSLi-17" value="&lt;b&gt;&lt;font style=&quot;font-size: 14px;&quot;&gt;read&lt;/font&gt;&lt;/b&gt;" style="edgeLabel;html=1;align=center;verticalAlign=middle;resizable=0;points=[];fontSize=12;" vertex="1" connectable="0" parent="mL4Ns4pXo5bt4_CQUSLi-16">
          <mxGeometry x="-0.0882" relative="1" as="geometry">
            <mxPoint as="offset" />
          </mxGeometry>
        </mxCell>
        <mxCell id="mL4Ns4pXo5bt4_CQUSLi-1" value="&lt;h3&gt;&lt;font style=&quot;font-size: 18px;&quot;&gt;D A T A&lt;/font&gt;&lt;/h3&gt;" style="shape=tape;whiteSpace=wrap;html=1;fillColor=#dae8fc;strokeColor=#6c8ebf;" vertex="1" parent="1">
          <mxGeometry x="178" y="-566" width="356" height="86" as="geometry" />
        </mxCell>
        <mxCell id="mL4Ns4pXo5bt4_CQUSLi-8" value="&lt;font style=&quot;font-size: 18px;&quot;&gt;&lt;b&gt;源数据源&amp;nbsp; &amp;nbsp;&lt;/b&gt;&lt;/font&gt;" style="strokeWidth=2;html=1;shape=mxgraph.flowchart.multi-document;whiteSpace=wrap;align=center;" vertex="1" parent="1">
          <mxGeometry x="17" y="-564" width="161" height="96" as="geometry" />
        </mxCell>
        <mxCell id="mL4Ns4pXo5bt4_CQUSLi-9" value="&lt;font style=&quot;font-size: 18px;&quot;&gt;&lt;b&gt;应用系统&lt;/b&gt;&lt;/font&gt;" style="rounded=1;whiteSpace=wrap;html=1;absoluteArcSize=1;arcSize=14;strokeWidth=2;" vertex="1" parent="1">
          <mxGeometry x="602" y="-562.5" width="126" height="79" as="geometry" />
        </mxCell>
        <mxCell id="mL4Ns4pXo5bt4_CQUSLi-14" value="&lt;b&gt;流&lt;/b&gt;" style="text;strokeColor=none;fillColor=none;html=1;align=center;verticalAlign=middle;whiteSpace=wrap;rounded=0;fontSize=16;" vertex="1" parent="1">
          <mxGeometry x="309" y="-581" width="60" height="30" as="geometry" />
        </mxCell>
      </root>
    </mxGraphModel>
  </diagram>
</mxfile>
